<svg width="1600" height="1000" viewBox="0 0 1600 1000" fill="none" xmlns="http://www.w3.org/2000/svg">
  <rect width="1600" height="1000" fill="#091018"/>
  <rect x="70" y="70" width="1460" height="860" rx="40" fill="url(#bg)"/>
  <circle cx="1330" cy="180" r="180" fill="#00D9FF" fill-opacity="0.12"/>
  <circle cx="1180" cy="760" r="220" fill="#00FF94" fill-opacity="0.12"/>
  <circle cx="300" cy="210" r="180" fill="#FFE600" fill-opacity="0.08"/>
  <text x="140" y="200" fill="#C8F6FF" font-family="Arial, sans-serif" font-size="34" letter-spacing="6">INVENTORY ANALYTICS DASHBOARD</text>
  <text x="140" y="280" fill="white" font-family="Arial, sans-serif" font-size="78" font-weight="700">Decision-ready</text>
  <text x="140" y="360" fill="white" font-family="Arial, sans-serif" font-size="78" font-weight="700">stock intelligence</text>
  <text x="140" y="430" fill="#AAB4C5" font-family="Arial, sans-serif" font-size="30">Dead stock, turnover, reorder risk, and demand visibility in one view.</text>
  <rect x="140" y="520" width="280" height="150" rx="24" fill="#101A24" stroke="#00D9FF" stroke-opacity="0.35"/>
  <text x="175" y="575" fill="#8EA3B8" font-family="Arial, sans-serif" font-size="24">SKUs Monitored</text>
  <text x="175" y="645" fill="#00D9FF" font-family="Arial, sans-serif" font-size="54" font-weight="700">1,200+</text>
  <rect x="450" y="520" width="280" height="150" rx="24" fill="#101A24" stroke="#00FF94" stroke-opacity="0.35"/>
  <text x="485" y="575" fill="#8EA3B8" font-family="Arial, sans-serif" font-size="24">Low-stock Flags</text>
  <text x="485" y="645" fill="#00FF94" font-family="Arial, sans-serif" font-size="54" font-weight="700">48</text>
  <rect x="760" y="520" width="280" height="150" rx="24" fill="#101A24" stroke="#FFE600" stroke-opacity="0.35"/>
  <text x="795" y="575" fill="#8EA3B8" font-family="Arial, sans-serif" font-size="24">Dead Stock</text>
  <text x="795" y="645" fill="#FFE600" font-family="Arial, sans-serif" font-size="54" font-weight="700">11%</text>
  <rect x="1060" y="250" width="340" height="470" rx="28" fill="#0E1720" stroke="rgba(255,255,255,0.10)"/>
  <text x="1095" y="310" fill="#C6D1DD" font-family="Arial, sans-serif" font-size="24">Stock Health</text>
  <rect x="1095" y="350" width="270" height="22" rx="11" fill="#12212E"/>
  <rect x="1095" y="350" width="210" height="22" rx="11" fill="#00D9FF"/>
  <rect x="1095" y="405" width="240" height="22" rx="11" fill="#12212E"/>
  <rect x="1095" y="405" width="120" height="22" rx="11" fill="#FFE600"/>
  <rect x="1095" y="460" width="270" height="22" rx="11" fill="#12212E"/>
  <rect x="1095" y="460" width="88" height="22" rx="11" fill="#FF7A59"/>
  <text x="1095" y="560" fill="#C6D1DD" font-family="Arial, sans-serif" font-size="24">Demand vs Stock</text>
  <polyline points="1095,645 1160,600 1230,620 1290,540 1360,510" fill="none" stroke="#00FF94" stroke-width="8" stroke-linecap="round" stroke-linejoin="round"/>
  <polyline points="1095,675 1160,650 1230,640 1290,645 1360,625" fill="none" stroke="#00D9FF" stroke-width="8" stroke-linecap="round" stroke-linejoin="round"/>
  <defs>
    <linearGradient id="bg" x1="70" y1="70" x2="1530" y2="930" gradientUnits="userSpaceOnUse">
      <stop stop-color="#0D141D"/>
      <stop offset="1" stop-color="#0A0F14"/>
    </linearGradient>
  </defs>
</svg>
