<svg width="1600" height="1000" viewBox="0 0 1600 1000" fill="none" xmlns="http://www.w3.org/2000/svg">
  <rect width="1600" height="1000" fill="#091018"/>
  <text x="110" y="145" fill="white" font-family="Arial, sans-serif" font-size="52" font-weight="700">Inventory reporting workflow</text>
  <text x="110" y="200" fill="#98A6B8" font-family="Arial, sans-serif" font-size="28">Dataset preparation, KPI modeling, and weekly decision summary</text>
  <rect x="110" y="300" width="300" height="400" rx="28" fill="#101820" stroke="#00D9FF" stroke-opacity="0.4"/>
  <text x="150" y="370" fill="#00D9FF" font-family="Arial, sans-serif" font-size="32" font-weight="700">1. Clean Data</text>
  <text x="150" y="435" fill="#D7DEE8" font-family="Arial, sans-serif" font-size="24">SKU master</text>
  <text x="150" y="485" fill="#D7DEE8" font-family="Arial, sans-serif" font-size="24">Usage history</text>
  <text x="150" y="535" fill="#D7DEE8" font-family="Arial, sans-serif" font-size="24">Lead time</text>
  <text x="150" y="585" fill="#D7DEE8" font-family="Arial, sans-serif" font-size="24">Min / max stock</text>
  <rect x="650" y="300" width="300" height="400" rx="28" fill="#101820" stroke="#00FF94" stroke-opacity="0.4"/>
  <text x="690" y="370" fill="#00FF94" font-family="Arial, sans-serif" font-size="32" font-weight="700">2. Model KPIs</text>
  <text x="690" y="435" fill="#D7DEE8" font-family="Arial, sans-serif" font-size="24">Turnover rate</text>
  <text x="690" y="485" fill="#D7DEE8" font-family="Arial, sans-serif" font-size="24">Days of cover</text>
  <text x="690" y="535" fill="#D7DEE8" font-family="Arial, sans-serif" font-size="24">Dead stock</text>
  <text x="690" y="585" fill="#D7DEE8" font-family="Arial, sans-serif" font-size="24">Reorder risk</text>
  <rect x="1190" y="300" width="300" height="400" rx="28" fill="#101820" stroke="#FFE600" stroke-opacity="0.4"/>
  <text x="1230" y="370" fill="#FFE600" font-family="Arial, sans-serif" font-size="32" font-weight="700">3. Weekly Action</text>
  <text x="1230" y="435" fill="#D7DEE8" font-family="Arial, sans-serif" font-size="24">Purchase list</text>
  <text x="1230" y="485" fill="#D7DEE8" font-family="Arial, sans-serif" font-size="24">Slow-moving review</text>
  <text x="1230" y="535" fill="#D7DEE8" font-family="Arial, sans-serif" font-size="24">Exception alerts</text>
  <text x="1230" y="585" fill="#D7DEE8" font-family="Arial, sans-serif" font-size="24">Management summary</text>
  <path d="M440 500H620" stroke="#00D9FF" stroke-width="10" stroke-linecap="round"/>
  <path d="M980 500H1160" stroke="#00FF94" stroke-width="10" stroke-linecap="round"/>
  <path d="M620 500L590 470" stroke="#00D9FF" stroke-width="10" stroke-linecap="round"/>
  <path d="M620 500L590 530" stroke="#00D9FF" stroke-width="10" stroke-linecap="round"/>
  <path d="M1160 500L1130 470" stroke="#00FF94" stroke-width="10" stroke-linecap="round"/>
  <path d="M1160 500L1130 530" stroke="#00FF94" stroke-width="10" stroke-linecap="round"/>
</svg>
